<svg width="439" height="989" viewBox="0 0 439 989" fill="none" xmlns="http://www.w3.org/2000/svg">
<path d="M399.947 0L37.2474 0.264238C17.1268 3.61126 1.89319 19.8619 0 40.5606V947.382C1.49694 969.49 17.567 986.093 39.0526 988.956H398.935C420.508 986.886 436.975 970.283 438.956 948.395V41.5735C437.459 19.3334 421.521 2.9947 399.903 0H399.947Z" fill="black"/>
<path d="M399.287 382.309L398.759 57.3397C395.589 49.1483 388.06 42.3662 378.99 41.7056H59.6136C50.6319 42.0579 40.4615 50.8658 39.3608 59.938L39.8892 191.573C41.6943 195.933 44.1158 199.412 47.7261 202.495L364.593 406.707C385.198 416.748 402.281 399.484 399.287 382.309ZM86.2063 162.947C84.8855 151.276 84.7534 118.291 86.2063 106.752C87.395 97.1516 97.1692 89.3565 106.459 88.5198C137.675 85.7012 174.042 90.1052 205.609 89.2685C213.05 91.0741 220.271 99.2214 221.327 106.84C223.793 124.853 222.164 185.231 221.283 234.467C221.107 245.257 209.176 251.687 200.018 245.918C168.406 225.88 136.97 205.621 106.063 184.658C97.5654 178.889 87.5271 174.397 86.2063 162.903V162.947Z" fill="white"/>
<path d="M399.111 787.298C397.306 782.938 394.884 779.459 391.274 776.376L74.4067 572.164C53.8017 562.123 36.719 579.387 39.7129 596.562L40.2412 921.531C43.4112 929.723 50.9399 936.505 60.0097 937.165H195.351C206.974 937.165 216.396 927.741 216.396 916.114V878.284C216.396 867.186 225.378 858.202 236.473 858.202H333.73C344.825 858.202 353.806 867.186 353.806 878.284V916.114C353.806 927.741 363.228 937.165 374.852 937.165H379.298C388.28 936.813 398.45 928.005 399.551 918.933L399.023 787.298H399.111ZM238.982 732.953C270.594 752.991 302.03 773.249 332.937 794.212C333.025 794.256 333.113 794.3 333.201 794.389C342.183 800.466 338.044 814.471 327.17 814.471H227.579C221.459 814.471 216.572 809.494 216.66 803.373C216.924 784.127 217.409 763.473 217.717 744.403C217.893 733.614 229.824 727.184 238.938 732.953H238.982Z" fill="white"/>
<path d="M401.532 663.679C401.576 632.366 401.268 597.795 401.664 566.087C402.633 537.417 404.218 508.218 402.061 481.09C401.62 474.088 399.331 467.438 393.387 463.166C344.428 431.369 296.174 397.811 245.762 368.348C234.888 364.12 222.956 374.206 222.868 384.467C222.604 396.93 223.264 413.137 223.264 425.16C223.396 436.742 211.069 441.454 203.716 433.659C196.099 422.297 187.514 406.795 170.915 379.711C159.072 360.025 145.599 337.697 133.624 317.835C116.497 289.385 102.584 266.352 100.559 263.049C94.5274 253.361 83.4324 246.711 71.721 246.843C58.909 245.521 42.4867 252.612 42.1785 267.057C42.1785 277.142 42.1785 528.168 42.1785 541.292C45.4365 563.136 82.9481 564.633 90.8291 545.256C93.8229 537.725 92.9864 530.503 93.4267 522.399C94.0871 488.841 91.5335 429.916 91.7096 400.938C90.3447 380.371 115.573 370.33 132.259 381.78C160.877 404.769 196.584 554.945 222.428 625.452C223.749 629.988 223.969 635.625 226.566 640.029C228.856 644.081 233.127 647.032 237.089 649.63C282.614 679.401 328.138 709.084 374.147 738.414C390.305 748.367 405.055 735.199 402.677 717.451C402.281 693.934 402.017 671.958 401.664 663.943V663.635L401.532 663.679Z" fill="white"/>
</svg>
