<svg width="1093" height="544" viewBox="0 0 1093 544" fill="none" xmlns="http://www.w3.org/2000/svg">
<g clip-path="url(#clip0_124_70)">
<path d="M79.8091 448.219V446.258C79.8091 436.93 84.6071 421.992 111.773 421.992H114.747C143.264 421.992 146.846 434.835 146.846 442.608V443.352H125.965C125.762 442.27 125.086 436.525 113.328 436.525C102.312 436.525 100.893 443.149 100.893 446.799V447.543C100.893 451.463 102.515 458.02 113.395 458.02C125.086 458.02 125.762 452.207 125.965 451.396H146.846V452.207C146.846 459.101 143.264 472.823 114.747 472.823H111.773C84.6747 472.823 79.8091 457.682 79.8091 448.286V448.219Z" fill="#FFFFEF"/>
<path d="M218.14 446.258V448.219C218.14 457.817 213.478 472.755 185.365 472.755H182.324C154.482 472.755 149.617 457.885 149.617 448.219V446.258C149.617 436.457 154.482 421.992 182.324 421.992H185.365C213.342 421.992 218.14 436.457 218.14 446.258ZM183.879 436.457C172.052 436.457 170.701 442.879 170.701 446.731V447.407C170.701 451.396 172.39 457.952 183.946 457.952C195.502 457.952 197.056 451.396 197.056 447.407V446.731C197.056 442.811 195.502 436.457 183.879 436.457Z" fill="#FFFFEF"/>
<path d="M243.279 456.6H272.27V471.877H223.209V422.871H243.279V456.6Z" fill="#FFFFEF"/>
<path d="M297.612 456.6H326.602V471.877H277.541V422.871H297.612V456.6Z" fill="#FFFFEF"/>
<path d="M383.03 435.376H351.944V440.648H382.084V453.491H351.944V459.236H383.503V471.877H331.806V422.871H383.03V435.376Z" fill="#FFFFEF"/>
<path d="M387.422 448.219V446.258C387.422 436.93 392.22 421.992 419.387 421.992H422.36C450.878 421.992 454.459 434.835 454.459 442.608V443.352H433.578C433.375 442.27 432.699 436.525 420.941 436.525C409.926 436.525 408.507 443.149 408.507 446.799V447.543C408.507 451.463 410.128 458.02 421.008 458.02C432.632 458.02 433.375 452.207 433.578 451.396H454.459V452.207C454.459 459.101 450.878 472.823 422.36 472.823H419.387C392.288 472.823 387.422 457.682 387.422 448.286V448.219Z" fill="#FFFFEF"/>
<path d="M456.824 437.674V422.871H516.901V437.674H496.898V471.877H476.895V437.674H456.892H456.824Z" fill="#FFFFEF"/>
<path d="M521.902 471.877V422.871H541.972V471.877H521.902Z" fill="#FFFFEF"/>
<path d="M599.819 435.714H569.409V442.067H598.872V455.113H569.409V471.944H549.271V422.938H599.819V435.781V435.714Z" fill="#FFFFEF"/>
<path d="M620.565 448.219V446.258C620.565 436.93 625.363 421.992 652.529 421.992H655.503C684.02 421.992 687.602 434.835 687.602 442.608V443.352H666.72C666.518 442.27 665.842 436.525 654.083 436.525C643.068 436.525 641.649 443.149 641.649 446.799V447.543C641.649 451.463 643.271 458.02 654.151 458.02C665.842 458.02 666.518 452.207 666.72 451.396H687.602V452.207C687.602 459.101 684.02 472.823 655.503 472.823H652.529C625.43 472.823 620.565 457.682 620.565 448.286V448.219Z" fill="#FFFFEF"/>
<path d="M756.599 459.372V468.429C756.599 470.322 756.869 470.998 757.342 471.606V471.944H736.663C736.663 471.944 736.258 470.863 736.258 469.105V464.982C736.258 458.628 734.095 457.411 727 457.411H712.673V471.944H692.603V422.938H735.852C753.49 422.938 756.193 429.563 756.193 436.525V436.863C756.193 444.298 750.111 447.34 744.84 448.421C750.99 449.165 756.666 451.733 756.666 459.507L756.599 459.372ZM730.378 443.555C734.501 443.555 735.312 441.729 735.312 439.837C735.312 438.079 734.501 436.322 730.378 436.322H712.673V443.487H730.378V443.555Z" fill="#FFFFEF"/>
<path d="M813.702 435.376H782.616V440.648H812.756V453.491H782.616V459.236H814.175V471.877H762.478V422.871H813.769V435.376H813.702Z" fill="#FFFFEF"/>
<path d="M837.557 464.576L834.178 471.877H814.107L837.354 422.871H863.371L886.889 471.877H865.602L862.223 464.576H837.489H837.557ZM843.166 452.207H856.681L849.991 437.336L843.233 452.207H843.166Z" fill="#FFFFEF"/>
<path d="M879.86 437.674V422.871H939.937V437.674H919.934V471.877H899.931V437.674H879.928H879.86Z" fill="#FFFFEF"/>
<path d="M944.938 471.877V422.871H965.008V471.877H944.938Z" fill="#FFFFEF"/>
<path d="M1022.79 435.714H992.445V442.067H1021.91V455.113H992.445V471.944H972.307V422.938H1022.85V435.781L1022.79 435.714Z" fill="#FFFFEF"/>
<path d="M412.156 65.2286C420.197 63.8767 432.294 64.147 438.376 70.2981L517.239 182.708C526.97 195.28 547.311 190.549 551.366 175.475C553.596 146.409 549.135 114.572 551.568 85.7773C552.514 75.0973 558.191 66.0397 569.612 65.0258C606.306 61.7136 647.866 67.5944 685.102 65.0258C693.278 65.4313 701.523 73.2047 702.266 81.316V361.765C701.793 370.553 694.427 377.582 685.913 378.934C645.298 376.231 599.954 382.517 559.88 378.934C553.731 378.394 549.811 375.419 545.892 370.891C519.604 340.608 498.655 216.572 472.232 186.223C460.001 172.163 443.782 176.286 436.551 192.374C435.538 219.749 439.457 332.97 437.092 360.008C434.929 384.207 400.6 385.964 397.356 361.765V80.4373C398.167 73.813 405.668 66.3777 412.156 65.2286Z" fill="#FFFFEF"/>
<path d="M375.867 352.505L375.394 77.1928C372.69 70.2306 366.338 64.4851 358.634 63.9443H88.1213C80.485 64.2823 71.9026 71.7177 70.9565 79.3559L71.362 190.887C72.8487 194.604 74.9436 197.511 77.9846 200.147L346.47 373.189C363.905 381.706 378.435 367.038 375.867 352.505ZM110.625 166.688C109.476 156.819 109.408 128.835 110.625 119.101C111.638 110.99 119.95 104.366 127.789 103.69C154.28 101.324 185.028 105.042 211.788 104.298C218.073 105.785 224.223 112.748 225.101 119.169C227.196 134.445 225.777 185.547 225.101 227.32C224.966 236.445 214.829 241.92 207.125 237.054C180.365 220.087 153.739 202.918 127.519 185.141C120.356 180.274 111.841 176.489 110.692 166.688H110.625Z" fill="#FFFFEF"/>
<path d="M1011.57 71.4473H740.988C733.352 71.988 726.932 77.7335 724.229 84.6958L723.756 360.008C721.188 374.541 735.717 389.209 753.152 380.692L860.33 311.61C868.507 306.338 873.44 297.28 873.44 287.547V203.932C873.44 195.618 880.131 188.926 888.443 188.926C918.515 188.859 948.519 188.588 978.524 187.777C984.538 187.642 989.471 192.441 989.471 198.39V215.423C989.471 221.034 995.688 224.413 1000.35 221.372L1021.64 207.65C1024.68 205.081 1026.77 202.107 1028.26 198.39L1028.67 86.8588C1027.72 79.2206 1019.14 71.7176 1011.5 71.4473H1011.57ZM887.902 111.734C914.663 112.477 945.478 108.692 971.901 111.125C979.74 111.801 988.052 118.425 989.066 126.537C989.336 128.565 989.539 131.404 989.674 134.716C990.012 142.557 983.795 149.181 975.956 149.248L888.037 150.668C879.995 150.803 873.508 144.111 873.846 136.068C874.049 132.147 874.251 128.97 874.589 126.604C875.468 120.183 881.617 113.221 887.902 111.734Z" fill="#FFFFEF"/>
<path d="M1040.63 10.1392H52.3727C29.0464 10.1392 10.1367 29.0536 10.1367 52.3857V491.614C10.1367 514.946 29.0464 533.861 52.3727 533.861H1040.63C1063.95 533.861 1082.86 514.946 1082.86 491.614V52.3857C1082.86 29.0536 1063.95 10.1392 1040.63 10.1392Z" stroke="#FFFFEF" stroke-width="26" stroke-linejoin="round"/>
<path d="M79.8091 448.219V446.258C79.8091 436.93 84.6071 421.992 111.773 421.992H114.747C143.264 421.992 146.846 434.835 146.846 442.608V443.352H125.965C125.762 442.27 125.086 436.525 113.328 436.525C102.312 436.525 100.893 443.149 100.893 446.799V447.543C100.893 451.463 102.515 458.02 113.395 458.02C125.086 458.02 125.762 452.207 125.965 451.396H146.846V452.207C146.846 459.101 143.264 472.823 114.747 472.823H111.773C84.6747 472.823 79.8091 457.682 79.8091 448.286V448.219Z" fill="#FFFFEF"/>
<path d="M218.14 446.258V448.219C218.14 457.817 213.478 472.755 185.365 472.755H182.324C154.482 472.755 149.617 457.885 149.617 448.219V446.258C149.617 436.457 154.482 421.992 182.324 421.992H185.365C213.342 421.992 218.14 436.457 218.14 446.258ZM183.879 436.457C172.052 436.457 170.701 442.879 170.701 446.731V447.407C170.701 451.396 172.39 457.952 183.946 457.952C195.502 457.952 197.056 451.396 197.056 447.407V446.731C197.056 442.811 195.502 436.457 183.879 436.457Z" fill="#FFFFEF"/>
<path d="M243.279 456.6H272.27V471.877H223.209V422.871H243.279V456.6Z" fill="#FFFFEF"/>
<path d="M297.612 456.6H326.602V471.877H277.541V422.871H297.612V456.6Z" fill="#FFFFEF"/>
<path d="M383.03 435.376H351.944V440.648H382.084V453.491H351.944V459.236H383.503V471.877H331.806V422.871H383.03V435.376Z" fill="#FFFFEF"/>
<path d="M387.422 448.219V446.258C387.422 436.93 392.22 421.992 419.387 421.992H422.36C450.878 421.992 454.459 434.835 454.459 442.608V443.352H433.578C433.375 442.27 432.699 436.525 420.941 436.525C409.926 436.525 408.507 443.149 408.507 446.799V447.543C408.507 451.463 410.128 458.02 421.008 458.02C432.632 458.02 433.375 452.207 433.578 451.396H454.459V452.207C454.459 459.101 450.878 472.823 422.36 472.823H419.387C392.288 472.823 387.422 457.682 387.422 448.286V448.219Z" fill="#FFFFEF"/>
<path d="M456.824 437.674V422.871H516.901V437.674H496.898V471.877H476.895V437.674H456.892H456.824Z" fill="#FFFFEF"/>
<path d="M521.902 471.877V422.871H541.972V471.877H521.902Z" fill="#FFFFEF"/>
<path d="M599.819 435.714H569.409V442.067H598.872V455.113H569.409V471.944H549.271V422.938H599.819V435.781V435.714Z" fill="#FFFFEF"/>
<path d="M620.565 448.219V446.258C620.565 436.93 625.363 421.992 652.529 421.992H655.503C684.02 421.992 687.602 434.835 687.602 442.608V443.352H666.72C666.518 442.27 665.842 436.525 654.083 436.525C643.068 436.525 641.649 443.149 641.649 446.799V447.543C641.649 451.463 643.271 458.02 654.151 458.02C665.842 458.02 666.518 452.207 666.72 451.396H687.602V452.207C687.602 459.101 684.02 472.823 655.503 472.823H652.529C625.43 472.823 620.565 457.682 620.565 448.286V448.219Z" fill="#FFFFEF"/>
<path d="M756.599 459.372V468.429C756.599 470.322 756.869 470.998 757.342 471.606V471.944H736.663C736.663 471.944 736.258 470.863 736.258 469.105V464.982C736.258 458.628 734.095 457.411 727 457.411H712.673V471.944H692.603V422.938H735.852C753.49 422.938 756.193 429.563 756.193 436.525V436.863C756.193 444.298 750.111 447.34 744.84 448.421C750.99 449.165 756.666 451.733 756.666 459.507L756.599 459.372ZM730.378 443.555C734.501 443.555 735.312 441.729 735.312 439.837C735.312 438.079 734.501 436.322 730.378 436.322H712.673V443.487H730.378V443.555Z" fill="#FFFFEF"/>
<path d="M813.702 435.376H782.616V440.648H812.756V453.491H782.616V459.236H814.175V471.877H762.478V422.871H813.769V435.376H813.702Z" fill="#FFFFEF"/>
<path d="M837.557 464.576L834.178 471.877H814.107L837.354 422.871H863.371L886.889 471.877H865.602L862.223 464.576H837.489H837.557ZM843.166 452.207H856.681L849.991 437.336L843.233 452.207H843.166Z" fill="#FFFFEF"/>
<path d="M879.86 437.674V422.871H939.937V437.674H919.934V471.877H899.931V437.674H879.928H879.86Z" fill="#FFFFEF"/>
<path d="M944.938 471.877V422.871H965.008V471.877H944.938Z" fill="#FFFFEF"/>
<path d="M1022.79 435.714H992.445V442.067H1021.91V455.113H992.445V471.944H972.307V422.938H1022.85V435.781L1022.79 435.714Z" fill="#FFFFEF"/>
<path d="M412.156 65.2286C420.197 63.8767 432.294 64.147 438.376 70.2981L517.239 182.708C526.97 195.28 547.311 190.549 551.366 175.475C553.596 146.409 549.135 114.572 551.568 85.7773C552.514 75.0973 558.191 66.0397 569.612 65.0258C606.306 61.7136 647.866 67.5944 685.102 65.0258C693.278 65.4313 701.523 73.2047 702.266 81.316V361.765C701.793 370.553 694.427 377.582 685.913 378.934C645.298 376.231 599.954 382.517 559.88 378.934C553.731 378.394 549.811 375.419 545.892 370.891C519.604 340.608 498.655 216.572 472.232 186.223C460.001 172.163 443.782 176.286 436.551 192.374C435.538 219.749 439.457 332.97 437.092 360.008C434.929 384.207 400.6 385.964 397.356 361.765V80.4373C398.167 73.813 405.668 66.3777 412.156 65.2286Z" fill="#FFFFEF"/>
<path d="M375.867 352.505L375.394 77.1928C372.69 70.2306 366.338 64.4851 358.634 63.9443H88.1213C80.485 64.2823 71.9026 71.7177 70.9565 79.3559L71.362 190.887C72.8487 194.604 74.9436 197.511 77.9846 200.147L346.47 373.189C363.905 381.706 378.435 367.038 375.867 352.505ZM110.625 166.688C109.476 156.819 109.408 128.835 110.625 119.101C111.638 110.99 119.95 104.366 127.789 103.69C154.28 101.324 185.028 105.042 211.788 104.298C218.073 105.785 224.223 112.748 225.101 119.169C227.196 134.445 225.777 185.547 225.101 227.32C224.966 236.445 214.829 241.92 207.125 237.054C180.365 220.087 153.739 202.918 127.519 185.141C120.356 180.274 111.841 176.489 110.692 166.688H110.625Z" fill="#FFFFEF"/>
<path d="M1011.57 71.4473H740.988C733.352 71.988 726.932 77.7335 724.229 84.6958L723.756 360.008C721.188 374.541 735.717 389.209 753.152 380.692L860.33 311.61C868.507 306.338 873.44 297.28 873.44 287.547V203.932C873.44 195.618 880.131 188.926 888.443 188.926C918.515 188.859 948.519 188.588 978.524 187.777C984.538 187.642 989.471 192.441 989.471 198.39V215.423C989.471 221.034 995.688 224.413 1000.35 221.372L1021.64 207.65C1024.68 205.081 1026.77 202.107 1028.26 198.39L1028.67 86.8588C1027.72 79.2206 1019.14 71.7176 1011.5 71.4473H1011.57ZM887.902 111.734C914.663 112.477 945.478 108.692 971.901 111.125C979.74 111.801 988.052 118.425 989.066 126.537C989.336 128.565 989.539 131.404 989.674 134.716C990.012 142.557 983.795 149.181 975.956 149.248L888.037 150.668C879.995 150.803 873.508 144.111 873.846 136.068C874.049 132.147 874.251 128.97 874.589 126.604C875.468 120.183 881.617 113.221 887.902 111.734Z" fill="#FFFFEF"/>
<path d="M1040.63 10.1392H52.3727C29.0464 10.1392 10.1367 29.0536 10.1367 52.3857V491.614C10.1367 514.946 29.0464 533.861 52.3727 533.861H1040.63C1063.95 533.861 1082.86 514.946 1082.86 491.614V52.3857C1082.86 29.0536 1063.95 10.1392 1040.63 10.1392Z" stroke="#FFFFEF" stroke-width="26" stroke-linejoin="round"/>
</g>
<defs>
<clipPath id="clip0_124_70">
<rect width="1093" height="544" fill="white"/>
</clipPath>
</defs>
</svg>
